<svg width="20" height="20" viewBox="0 0 20 20" fill="none" xmlns="http://www.w3.org/2000/svg">
    <path d="M10.0482 13.4754L6.14204 17.3815C5.66911 17.838 5.0375 18.0931 4.38025 18.0931C3.72299 18.0931 3.09138 17.838 2.61846 17.3815C2.38651 17.1505 2.20246 16.876 2.07688 16.5736C1.9513 16.2713 1.88666 15.9471 1.88666 15.6198C1.88666 15.2924 1.9513 14.9682 2.07688 14.6659C2.20246 14.3636 2.38651 14.089 2.61846 13.858L6.5246 9.95182C6.71417 9.76225 6.82067 9.50513 6.82067 9.23703C6.82067 8.96894 6.71417 8.71182 6.5246 8.52225C6.33503 8.33268 6.07791 8.22618 5.80981 8.22618C5.54172 8.22618 5.2846 8.33268 5.09503 8.52225L1.18889 12.4385C0.401977 13.295 -0.0236073 14.4224 0.00101151 15.5853C0.0256303 16.7481 0.498548 17.8565 1.321 18.679C2.14346 19.5015 3.25186 19.9744 4.41472 19.999C5.57759 20.0236 6.70501 19.598 7.56154 18.8111L11.4777 14.905C11.6673 14.7154 11.7738 14.4583 11.7738 14.1902C11.7738 13.9221 11.6673 13.665 11.4777 13.4754C11.2882 13.2858 11.0311 13.1793 10.763 13.1793C10.4949 13.1793 10.2378 13.2858 10.0482 13.4754V13.4754ZM18.686 1.31401C17.8391 0.47238 16.6936 0 15.4997 0C14.3057 0 13.1602 0.47238 12.3133 1.31401L8.39713 5.22015C8.30326 5.31402 8.22881 5.42545 8.17801 5.5481C8.1272 5.67074 8.10106 5.80219 8.10106 5.93493C8.10106 6.06768 8.1272 6.19913 8.17801 6.32177C8.22881 6.44441 8.30326 6.55585 8.39713 6.64972C8.491 6.74358 8.60243 6.81804 8.72508 6.86884C8.84772 6.91964 8.97917 6.94579 9.11192 6.94579C9.24466 6.94579 9.37611 6.91964 9.49875 6.86884C9.6214 6.81804 9.73283 6.74358 9.8267 6.64972L13.7328 2.74357C14.2058 2.28715 14.8374 2.03207 15.4946 2.03207C16.1519 2.03207 16.7835 2.28715 17.2564 2.74357C17.4884 2.97461 17.6724 3.24917 17.798 3.5515C17.9236 3.85383 17.9882 4.17799 17.9882 4.50537C17.9882 4.83274 17.9236 5.1569 17.798 5.45923C17.6724 5.76156 17.4884 6.03612 17.2564 6.26716L13.3503 10.1733C13.2559 10.2669 13.181 10.3782 13.1299 10.5009C13.0788 10.6236 13.0525 10.7552 13.0525 10.8881C13.0525 11.021 13.0788 11.1526 13.1299 11.2753C13.181 11.3979 13.2559 11.5093 13.3503 11.6029C13.4439 11.6972 13.5552 11.7721 13.6779 11.8232C13.8006 11.8743 13.9322 11.9007 14.0651 11.9007C14.198 11.9007 14.3296 11.8743 14.4522 11.8232C14.5749 11.7721 14.6863 11.6972 14.7798 11.6029L18.686 7.68666C19.5276 6.83977 20 5.6943 20 4.50033C20 3.30637 19.5276 2.16089 18.686 1.31401V1.31401ZM6.74608 13.2539C6.84015 13.3472 6.95171 13.421 7.07437 13.4711C7.19703 13.5212 7.32837 13.5466 7.46086 13.5459C7.59336 13.5466 7.7247 13.5212 7.84736 13.4711C7.97002 13.421 8.08158 13.3472 8.17565 13.2539L13.1288 8.30077C13.3184 8.11119 13.4249 7.85408 13.4249 7.58598C13.4249 7.31789 13.3184 7.06077 13.1288 6.8712C12.9392 6.68163 12.6821 6.57513 12.414 6.57513C12.1459 6.57513 11.8888 6.68163 11.6992 6.8712L6.74608 11.8244C6.65172 11.9179 6.57683 12.0293 6.52571 12.152C6.4746 12.2746 6.44829 12.4062 6.44829 12.5391C6.44829 12.672 6.4746 12.8036 6.52571 12.9263C6.57683 13.049 6.65172 13.1603 6.74608 13.2539Z" fill="white"/>
</svg>
